<svg width="28" height="28" viewBox="0 0 28 28" fill="none" xmlns="http://www.w3.org/2000/svg">
<path fill-rule="evenodd" clip-rule="evenodd" d="M20.5286 0.000284913C18.5524 -0.0168872 16.6486 0.742788 15.2271 2.11569L15.2168 2.12581L12.9681 4.36142C12.5765 4.75081 12.5746 5.38397 12.964 5.77563C13.3534 6.16729 13.9865 6.16914 14.3782 5.77975L16.6215 3.54946C17.6653 2.54391 19.0618 1.98761 20.5112 2.00021C21.963 2.01282 23.3517 2.59513 24.3783 3.62171C25.4048 4.6483 25.9871 6.03701 25.9998 7.48876C26.0123 8.93774 25.4564 10.3338 24.4515 11.3774L20.5358 15.2931L20.5356 15.2933C19.9743 15.8548 19.2988 16.289 18.5549 16.5665C17.811 16.844 17.0162 16.9583 16.2242 16.9015C15.4323 16.8448 14.6618 16.6185 13.9651 16.2378C13.2683 15.8571 12.6616 15.3311 12.186 14.6953C11.8552 14.253 11.2285 14.1627 10.7863 14.4935C10.344 14.8243 10.2537 15.451 10.5845 15.8932C11.2318 16.7587 12.0577 17.4748 13.0062 17.9929C13.9546 18.5111 15.0034 18.8192 16.0814 18.8964C17.1593 18.9736 18.2413 18.8181 19.2539 18.4404C20.2665 18.0627 21.1859 17.4716 21.95 16.7074L21.9501 16.7072L25.8721 12.7852L25.8843 12.7728C27.2572 11.3514 28.0169 9.44753 27.9997 7.47138C27.9825 5.49524 27.1899 3.6049 25.7925 2.2075C24.3951 0.810102 22.5047 0.0174571 20.5286 0.000284913ZM11.9186 9.07736C10.8406 9.00016 9.75863 9.15569 8.74604 9.53342C7.73351 9.91113 6.81404 10.5022 6.05 11.2664L6.04987 11.2666L2.12787 15.1886L2.11569 15.201C0.742787 16.6224 -0.0168872 18.5263 0.000284914 20.5024C0.0174571 22.4786 0.810102 24.3689 2.2075 25.7663C3.6049 27.1637 5.49524 27.9563 7.47138 27.9735C9.44753 27.9907 11.3514 27.231 12.7728 25.8581L12.7852 25.8459L15.0208 23.6103C15.4114 23.2198 15.4114 22.5866 15.0208 22.1961C14.6303 21.8056 13.9971 21.8056 13.6066 22.1961L11.3774 24.4253C10.3338 25.4303 8.93773 25.9862 7.48876 25.9736C6.03701 25.961 4.6483 25.3787 3.62171 24.3521C2.59513 23.3255 2.01282 21.9368 2.00021 20.485C1.98762 19.0361 2.54355 17.64 3.54848 16.5964L7.46421 12.6807L7.46434 12.6805C8.02565 12.119 8.70116 11.6848 9.44505 11.4073C10.1889 11.1298 10.9838 11.0155 11.7757 11.0723C12.5677 11.129 13.3381 11.3553 14.0349 11.736C14.7316 12.1167 15.3384 12.6427 15.8139 13.2785C16.1448 13.7208 16.7714 13.8111 17.2137 13.4803C17.6559 13.1495 17.7463 12.5228 17.4155 12.0806C16.7681 11.2151 15.9422 10.499 14.9938 9.98087C14.0454 9.4627 12.9966 9.15457 11.9186 9.07736Z" fill="white"/>
</svg>
