<svg width="21" height="21" viewBox="0 0 21 21" fill="none" xmlns="http://www.w3.org/2000/svg">
<path d="M10.5 4.875C9.87868 4.875 9.375 5.37868 9.375 6V6C9.375 6.62132 9.87868 7.125 10.5 7.125V7.125C11.1213 7.125 11.625 6.62132 11.625 6V6C11.625 5.37868 11.1213 4.875 10.5 4.875V4.875ZM10.5 9.375C9.87868 9.375 9.375 9.87868 9.375 10.5V15C9.375 15.6213 9.87868 16.125 10.5 16.125V16.125C11.1213 16.125 11.625 15.6213 11.625 15V10.5C11.625 9.87868 11.1213 9.375 10.5 9.375V9.375Z" stroke="white"/>
<circle cx="10.5" cy="10.5" r="10" stroke="white"/>
</svg>
