<svg width="407" height="181" viewBox="0 0 407 181" fill="none" xmlns="http://www.w3.org/2000/svg">
<rect x="16" y="63" width="28" height="55" rx="4" stroke="white" stroke-width="2"/>
<rect x="50" y="63" width="28" height="55" rx="4" stroke="white" stroke-width="2"/>
<rect x="84" y="63" width="28" height="55" rx="4" stroke="white" stroke-width="2"/>
<rect x="118" y="63" width="28" height="55" rx="4" stroke="white" stroke-width="2"/>
<rect x="152" y="63" width="28" height="55" rx="4" stroke="white" stroke-width="2"/>
<rect x="186" y="63" width="29" height="55" rx="4" stroke="white" stroke-width="2"/>
<rect x="221" y="63" width="28" height="55" rx="4" stroke="white" stroke-width="2"/>
<rect x="255" y="63" width="28" height="55" rx="4" stroke="white" stroke-width="2"/>
<rect x="289" y="63" width="28" height="55" rx="4" stroke="white" stroke-width="2"/>
<rect x="323" y="63" width="28" height="55" rx="4" stroke="white" stroke-width="2"/>
<rect x="357" y="63" width="28" height="55" rx="4" stroke="white" stroke-width="2"/>
<rect x="1" y="1" width="28" height="55" rx="4" stroke="white" stroke-width="2"/>
<rect x="35" y="1" width="28" height="55" rx="4" stroke="white" stroke-width="2"/>
<rect x="69" y="1" width="28" height="55" rx="4" stroke="white" stroke-width="2"/>
<rect x="103" y="1" width="28" height="55" rx="4" stroke="white" stroke-width="2"/>
<rect x="137" y="1" width="28" height="55" rx="4" stroke="white" stroke-width="2"/>
<rect x="171" y="1" width="29" height="55" rx="4" stroke="white" stroke-width="2"/>
<rect x="205" y="1" width="29" height="55" rx="4" stroke="white" stroke-width="2"/>
<rect x="240" y="1" width="28" height="55" rx="4" stroke="white" stroke-width="2"/>
<rect x="274" y="1" width="28" height="55" rx="4" stroke="white" stroke-width="2"/>
<rect x="308" y="1" width="28" height="55" rx="4" stroke="white" stroke-width="2"/>
<rect x="342" y="1" width="28" height="55" rx="4" stroke="white" stroke-width="2"/>
<rect x="376" y="1" width="28" height="55" rx="4" stroke="white" stroke-width="2"/>
<rect x="342" y="125" width="63.1429" height="55" rx="4" stroke="white" stroke-width="2"/>
<path d="M134.44 92.8C133.533 93.9733 132.42 95.0133 131.1 95.92C129.78 96.8133 128.453 97.26 127.12 97.26C126.72 97.26 126.387 97.16 126.12 96.96C125.867 96.7467 125.74 96.4733 125.74 96.14C125.74 95.14 125.967 94.0733 126.42 92.94C126.873 91.8067 127.547 90.7 128.44 89.62C129.333 88.54 130.407 87.6067 131.66 86.82L130.34 84H132.56L138.62 97H136.4L134.44 92.8ZM127.76 94.98C127.76 95.1133 127.793 95.2133 127.86 95.28C127.94 95.3333 128.04 95.3467 128.16 95.32C129.12 95.0933 130.093 94.5733 131.08 93.76C132.067 92.9333 132.9 92 133.58 90.96L132.46 88.54C131.153 89.3933 130.107 90.3733 129.32 91.48C128.533 92.5867 128.02 93.7067 127.78 94.84L127.76 94.98Z" fill="white"/>
<path d="M29 98.1C27.6533 98.1 26.4467 97.82 25.38 97.26C24.3267 96.6867 23.5 95.9 22.9 94.9C22.3 93.8867 22 92.7533 22 91.5C22 90.26 22.3 89.14 22.9 88.14C23.5133 87.1267 24.3533 86.3333 25.42 85.76C26.4867 85.1867 27.68 84.9 29 84.9V82H31V84.9C32.3467 84.9 33.5467 85.1867 34.6 85.76C35.6667 86.32 36.5 87.1067 37.1 88.12C37.7 89.12 38 90.2467 38 91.5C38 92.74 37.6933 93.8667 37.08 94.88C36.48 95.88 35.6467 96.6667 34.58 97.24C33.5133 97.8133 32.32 98.1 31 98.1V102H29V98.1ZM24.1 91.5C24.1 92.42 24.3067 93.24 24.72 93.96C25.1467 94.6667 25.7267 95.22 26.46 95.62C27.2067 96.02 28.0533 96.22 29 96.22V86.78C28.0533 86.78 27.2067 86.98 26.46 87.38C25.7267 87.78 25.1467 88.34 24.72 89.06C24.3067 89.7667 24.1 90.58 24.1 91.5ZM31 96.22C31.9467 96.22 32.7867 96.02 33.52 95.62C34.2667 95.22 34.8467 94.66 35.26 93.94C35.6867 93.22 35.9 92.4067 35.9 91.5C35.9 90.5933 35.6867 89.78 35.26 89.06C34.8467 88.34 34.2667 87.78 33.52 87.38C32.7867 86.98 31.9467 86.78 31 86.78V96.22Z" fill="white"/>
<path d="M63.8 98V85H65.8V98H63.8Z" fill="white"/>
<path d="M93.5 91.5C93.5 89.9133 93.7733 88.6133 94.32 87.6C94.8667 86.5867 95.5867 85.8533 96.48 85.4C97.3733 84.9333 98.3533 84.7 99.42 84.7C100.26 84.7 101.033 84.8533 101.74 85.16C102.447 85.4533 103.007 85.88 103.42 86.44C103.847 87 104.06 87.6667 104.06 88.44C104.06 89.2 103.833 89.8533 103.38 90.4C102.94 90.9467 102.327 91.3733 101.54 91.68C102.433 91.92 103.1 92.2333 103.54 92.62C103.98 92.9933 104.2 93.5467 104.2 94.28C104.2 94.8933 104.167 95.4533 104.1 95.96C104.047 96.4533 103.953 97.1333 103.82 98H93.5V91.5ZM102.06 96.18C102.153 95.5533 102.2 95.0067 102.2 94.54C102.2 94.1 101.967 93.7333 101.5 93.44C101.033 93.1333 100.487 92.9067 99.86 92.76C99.2467 92.6133 98.7267 92.54 98.3 92.54C97.7933 92.54 96.8533 92.6467 95.48 92.86V96.18H102.06ZM99.58 90.6C101.22 90.36 102.04 89.68 102.04 88.56C102.04 87.92 101.787 87.4267 101.28 87.08C100.773 86.72 100.133 86.54 99.36 86.54C98.6933 86.54 98.0667 86.6933 97.48 87C96.8933 87.2933 96.4133 87.7667 96.04 88.42C95.6667 89.06 95.48 89.8733 95.48 90.86V91.18L99.58 90.6Z" fill="white"/>
<path d="M160.8 98V85H171.8V98H169.8V86.88H162.8V98H160.8Z" fill="white"/>
<path d="M196.5 91.12C196.5 89.88 196.753 88.7733 197.26 87.8C197.78 86.8267 198.493 86.0667 199.4 85.52C200.32 84.9733 201.36 84.7 202.52 84.7C203.92 84.7 205.007 85.0467 205.78 85.74C206.553 86.42 206.94 87.3867 206.94 88.64C206.94 89.4267 206.787 90.2467 206.48 91.1C206.173 91.9533 205.753 92.7267 205.22 93.42H198.5V98H196.5V91.12ZM204.04 91.64C204.64 90.68 204.94 89.6867 204.94 88.66C204.94 88.0333 204.713 87.5267 204.26 87.14C203.82 86.74 203.247 86.54 202.54 86.54C201.753 86.54 201.053 86.7333 200.44 87.12C199.827 87.5067 199.347 88.0467 199 88.74C198.667 89.4333 198.5 90.2267 198.5 91.12V91.64H204.04Z" fill="white"/>
<path d="M234.8 98.3C233.493 98.3 232.32 98.0067 231.28 97.42C230.253 96.8333 229.447 96.0267 228.86 95C228.287 93.96 228 92.7933 228 91.5C228 90.22 228.293 89.0667 228.88 88.04C229.48 87 230.293 86.1867 231.32 85.6C232.36 85 233.52 84.7 234.8 84.7C236.107 84.7 237.273 84.9933 238.3 85.58C239.34 86.1667 240.147 86.98 240.72 88.02C241.307 89.0467 241.6 90.2067 241.6 91.5C241.6 92.78 241.3 93.94 240.7 94.98C240.113 96.0067 239.3 96.82 238.26 97.42C237.233 98.0067 236.08 98.3 234.8 98.3ZM230.1 91.5C230.1 92.4467 230.3 93.2933 230.7 94.04C231.1 94.7867 231.653 95.3733 232.36 95.8C233.08 96.2133 233.893 96.42 234.8 96.42C235.707 96.42 236.513 96.2133 237.22 95.8C237.94 95.3733 238.5 94.7867 238.9 94.04C239.3 93.2933 239.5 92.4467 239.5 91.5C239.5 90.5533 239.3 89.7067 238.9 88.96C238.5 88.2133 237.94 87.6333 237.22 87.22C236.513 86.7933 235.707 86.58 234.8 86.58C233.893 86.58 233.08 86.7933 232.36 87.22C231.653 87.6333 231.1 88.2133 230.7 88.96C230.3 89.7067 230.1 90.5533 230.1 91.5Z" fill="white"/>
<path d="M273.1 97C272.18 94.2667 271.393 92.1133 270.74 90.54C270.1 88.9533 269.52 87.7667 269 86.98L264.7 97H262.6L267.48 85.64C267.133 85.4933 266.74 85.42 266.3 85.42C265.94 85.42 265.513 85.4733 265.02 85.58L265.56 83.68C265.947 83.5733 266.313 83.52 266.66 83.52C267.727 83.52 268.64 83.8267 269.4 84.44C270.16 85.04 271 86.2933 271.92 88.2C272.84 90.1067 273.987 93.04 275.36 97H273.1Z" fill="white"/>
<path d="M297.96 101H296V95.16H297.38L301.46 85.64C301.113 85.4933 300.72 85.42 300.28 85.42C299.92 85.42 299.493 85.4733 299 85.58L299.54 83.68C299.927 83.5733 300.293 83.52 300.64 83.52C301.653 83.52 302.52 83.7867 303.24 84.32C303.973 84.8533 304.76 85.9467 305.6 87.6C306.453 89.2533 307.487 91.7733 308.7 95.16H310.32V101H308.36V97H297.96V101ZM306.48 95.16C305.733 93.0133 305.073 91.2867 304.5 89.98C303.94 88.66 303.427 87.6467 302.96 86.94L299.42 95.16H306.48Z" fill="white"/>
<path d="M336.36 94.2C336.36 93.7333 336.173 93.2133 335.8 92.64C335.427 92.0533 334.9 91.46 334.22 90.86C333.5 91.6333 332.727 92.74 331.9 94.18C331.087 95.6067 330.32 97.2133 329.6 99H327.4C328.173 97.0533 329.027 95.2667 329.96 93.64C330.893 92 331.813 90.6733 332.72 89.66C331.933 89.0733 331.213 88.6533 330.56 88.4C329.907 88.1333 329.173 87.9667 328.36 87.9L328.98 85.92C330.193 86.0133 331.487 86.5067 332.86 87.4C334.247 88.2933 335.413 89.3733 336.36 90.64V86H338.34V90.62C339.287 89.3533 340.447 88.28 341.82 87.4C343.193 86.5067 344.487 86.0133 345.7 85.92L346.32 87.88C345.507 87.9467 344.767 88.1133 344.1 88.38C343.447 88.6333 342.72 89.0467 341.92 89.62C342.827 90.6333 343.753 91.96 344.7 93.6C345.647 95.24 346.507 97.04 347.28 99H345.06C344.327 97.2133 343.547 95.6 342.72 94.16C341.893 92.72 341.113 91.6133 340.38 90.84C339.78 91.3867 339.3 91.9267 338.94 92.46C338.593 92.98 338.393 93.4667 338.34 93.92V99H336.36V94.2Z" fill="white"/>
<path d="M371.66 99.26C370.327 99.26 369.153 98.9733 368.14 98.4C367.14 97.8133 366.367 97.0067 365.82 95.98C365.273 94.9533 365 93.7933 365 92.5C365 91.2733 365.253 90.14 365.76 89.1C366.267 88.06 366.98 87.2333 367.9 86.62C368.82 86.0067 369.867 85.7 371.04 85.7C371.613 85.7133 372.107 85.7867 372.52 85.92C372.947 86.0533 373.387 86.2333 373.84 86.46C374.08 86.5933 374.28 86.6933 374.44 86.76C374.613 86.8133 374.773 86.84 374.92 86.84C375.107 86.84 375.233 86.7933 375.3 86.7C375.367 86.6067 375.4 86.4133 375.4 86.12V85.68L377.32 86.16C377.373 86.9867 377.18 87.62 376.74 88.06C376.313 88.4867 375.713 88.7 374.94 88.7C374.633 88.7 374.327 88.6533 374.02 88.56C373.713 88.4667 373.347 88.3267 372.92 88.14C372.507 87.9533 372.14 87.8133 371.82 87.72C371.513 87.6133 371.2 87.56 370.88 87.56C369.84 87.56 368.98 87.9133 368.3 88.62C367.62 89.3133 367.227 90.2533 367.12 91.44H373.02V93.32H367.12C367.2 94.1067 367.433 94.8067 367.82 95.42C368.22 96.0333 368.747 96.5133 369.4 96.86C370.053 97.2067 370.807 97.38 371.66 97.38C372.74 97.38 373.653 97.08 374.4 96.48C375.147 95.88 375.627 95.06 375.84 94.02L377.66 94.6C377.513 95.4933 377.16 96.2933 376.6 97C376.053 97.7067 375.347 98.26 374.48 98.66C373.627 99.06 372.687 99.26 371.66 99.26Z" fill="white"/>
<path d="M8.8 37V24H10.8V28.82L17.8 25.96V24H19.8V37H17.8V27.98L10.8 30.84V37H8.8ZM13.46 22.9C13.78 22.2867 14 21.8 14.12 21.44C14.2533 21.08 14.32 20.74 14.32 20.42C14.32 20.26 14.2733 20.1333 14.18 20.04C14.0867 19.9467 13.9733 19.9 13.84 19.9C13.68 19.9 13.5467 19.9733 13.44 20.12C13.3467 20.2533 13.3 20.4667 13.3 20.76C13.3 20.92 13.3067 21.04 13.32 21.12L11.9 20.68C11.8733 20.4933 11.86 20.3467 11.86 20.24C11.86 19.6933 12.0533 19.2467 12.44 18.9C12.84 18.54 13.3467 18.36 13.96 18.36C14.5467 18.36 15.0267 18.54 15.4 18.9C15.7867 19.26 15.98 19.7267 15.98 20.3C15.98 20.7 15.8867 21.1733 15.7 21.72C15.5267 22.2667 15.2667 22.84 14.92 23.44L13.46 22.9Z" fill="white"/>
<path d="M53.8 24V35.12H55.84L54.74 41H52.8L53.42 37H42.8V24H44.8V35.12H51.8V24H53.8Z" fill="white"/>
<path d="M82.64 37.28C80.92 32.8 79.6733 29.78 78.9 28.22C78.3667 27.1933 77.92 26.4933 77.56 26.12C77.2133 25.7467 76.8533 25.56 76.48 25.56C76.3333 25.56 76.2133 25.5667 76.12 25.58L76.66 23.8C76.8467 23.76 77.0133 23.74 77.16 23.74C77.6933 23.74 78.16 23.8733 78.56 24.14C78.9733 24.4067 79.38 24.8533 79.78 25.48C80.18 26.1067 80.6267 26.9867 81.12 28.12C81.9067 29.9067 82.7333 32.12 83.6 34.76L83.82 34.12C84.62 31.6533 85.34 29.6533 85.98 28.12C86.46 27 86.8933 26.1267 87.28 25.5C87.6667 24.8733 88.06 24.4267 88.46 24.16C88.86 23.8933 89.3133 23.76 89.82 23.76C89.9 23.76 90.0467 23.7733 90.26 23.8L90.8 25.58C90.7067 25.5667 90.5867 25.56 90.44 25.56C90.0533 25.56 89.68 25.74 89.32 26.1C88.9733 26.46 88.56 27.1467 88.08 28.16C87.4267 29.5333 86.3867 32.2133 84.96 36.2L83.46 41.02H81.48L82.64 37.28Z" fill="white"/>
<path d="M112.8 24H114.78V28.7C115.767 27.42 116.987 26.3267 118.44 25.42C119.907 24.5133 121.28 24.0133 122.56 23.92L123.18 25.8C122.273 25.8667 121.453 26.0467 120.72 26.34C120 26.62 119.187 27.0933 118.28 27.76C119.267 28.6667 120.293 29.9267 121.36 31.54C122.44 33.14 123.473 34.96 124.46 37H122.18C121.26 35.1733 120.333 33.5867 119.4 32.24C118.467 30.88 117.573 29.8067 116.72 29.02C116.093 29.5933 115.613 30.1533 115.28 30.7C114.947 31.2467 114.78 31.7467 114.78 32.2V37H112.8V24Z" fill="white"/>
<path d="M151.24 35.42C152.373 35.42 153.3 35.12 154.02 34.52C154.753 33.9067 155.2 33.0733 155.36 32.02L157.22 32.6C157.087 33.5333 156.753 34.3533 156.22 35.06C155.687 35.7533 155 36.2933 154.16 36.68C153.333 37.0667 152.393 37.26 151.34 37.26C150.22 37.26 149.26 37.0933 148.46 36.76C147.66 36.4267 147.053 35.9667 146.64 35.38C146.227 34.7933 146.02 34.1333 146.02 33.4C146.02 32.6667 146.193 32.04 146.54 31.52C146.9 30.9867 147.42 30.5867 148.1 30.32C147.487 30.04 147.013 29.6333 146.68 29.1C146.36 28.5533 146.2 27.9533 146.2 27.3C146.2 26.6733 146.353 26.0867 146.66 25.54C146.967 24.9933 147.433 24.5533 148.06 24.22C148.687 23.8733 149.447 23.7 150.34 23.7C150.953 23.7133 151.48 23.7867 151.92 23.92C152.36 24.0533 152.82 24.24 153.3 24.48C153.54 24.6 153.74 24.6933 153.9 24.76C154.06 24.8133 154.213 24.84 154.36 24.84C154.547 24.84 154.673 24.7933 154.74 24.7C154.807 24.6067 154.84 24.4133 154.84 24.12V23.68L156.76 24.16C156.787 24.96 156.593 25.58 156.18 26.02C155.767 26.46 155.147 26.68 154.32 26.68C154.027 26.68 153.733 26.6333 153.44 26.54C153.147 26.4333 152.787 26.2867 152.36 26.1C151.933 25.9 151.56 25.7533 151.24 25.66C150.933 25.5533 150.627 25.5 150.32 25.5C149.707 25.5 149.2 25.6733 148.8 26.02C148.4 26.3667 148.2 26.8133 148.2 27.36C148.2 27.96 148.427 28.4467 148.88 28.82C149.347 29.1933 149.947 29.38 150.68 29.38H152.12V31.24H150.52C149.773 31.24 149.18 31.42 148.74 31.78C148.313 32.14 148.1 32.6333 148.1 33.26C148.1 33.9 148.387 34.42 148.96 34.82C149.547 35.22 150.307 35.42 151.24 35.42Z" fill="white"/>
<path d="M180.8 37V24H182.8V28.06H189.8V24H191.8V37H189.8V29.94H182.8V37H180.8Z" fill="white"/>
<path d="M216.8 37V24H225.76V27.68H223.78V25.88H218.8V37H216.8Z" fill="white"/>
<path d="M244.8 24H246.8V35.12H252.3V24H254.3V35.12H259.8V24H261.8V37H244.8V24Z" fill="white"/>
<path d="M278.8 24H280.8V35.12H286.3V24H288.3V35.12H293.8V24H295.8V35.12H297.84L296.74 41H294.8L295.42 37H278.8V24Z" fill="white"/>
<path d="M315.16 37C315.147 36.8933 315.14 36.74 315.14 36.54C315.14 35.8333 315.333 35.28 315.72 34.88C316.12 34.4667 316.713 34.26 317.5 34.26C317.887 34.26 318.273 34.32 318.66 34.44C319.047 34.5467 319.507 34.7067 320.04 34.92C320.587 35.1333 321.04 35.2933 321.4 35.4C321.773 35.5067 322.147 35.56 322.52 35.56C323.24 35.56 323.793 35.3867 324.18 35.04C324.567 34.68 324.76 34.18 324.76 33.54C324.76 32.9267 324.533 32.46 324.08 32.14C323.627 31.8067 322.973 31.64 322.12 31.64H320.6V29.76H321.82C322.513 29.76 323.073 29.58 323.5 29.22C323.94 28.8467 324.16 28.34 324.16 27.7C324.16 27.0333 323.9 26.52 323.38 26.16C322.86 25.8 322.12 25.62 321.16 25.62C320.307 25.62 319.613 25.7933 319.08 26.14C318.547 26.4867 318.28 26.94 318.28 27.5C318.28 27.8467 318.36 28.1933 318.52 28.54L316.74 29.12C316.607 28.84 316.507 28.58 316.44 28.34C316.373 28.1 316.34 27.8267 316.34 27.52C316.34 26.7733 316.54 26.1133 316.94 25.54C317.353 24.9667 317.927 24.5267 318.66 24.22C319.393 23.9 320.227 23.74 321.16 23.74C322.733 23.74 323.96 24.0867 324.84 24.78C325.72 25.46 326.16 26.3867 326.16 27.56C326.16 28.1733 326.02 28.7333 325.74 29.24C325.473 29.7333 325.087 30.1333 324.58 30.44C325.287 30.7067 325.833 31.1 326.22 31.62C326.607 32.14 326.8 32.76 326.8 33.48C326.8 34.6667 326.4 35.6 325.6 36.28C324.8 36.96 323.747 37.3 322.44 37.3C321.787 37.3 321.233 37.24 320.78 37.12C320.34 37 319.86 36.8333 319.34 36.62C318.94 36.46 318.613 36.3467 318.36 36.28C318.12 36.2 317.847 36.16 317.54 36.16C317.34 36.16 317.18 36.24 317.06 36.4C316.94 36.56 316.88 36.7533 316.88 36.98C316.88 37.0467 316.893 37.1467 316.92 37.28L315.16 37Z" fill="white"/>
<path d="M349.4 37C350.08 35.6933 350.88 34.3333 351.8 32.92C352.72 31.5067 353.667 30.18 354.64 28.94C353.267 27.1933 351.807 25.5467 350.26 24H352.92C353.56 24.6667 354.42 25.6733 355.5 27.02L355.86 27.48C356.793 26.1867 357.68 25.22 358.52 24.58C359.373 23.94 360.193 23.6667 360.98 23.76L361.54 25.64C360.98 25.6133 360.46 25.7267 359.98 25.98C359.5 26.2333 359.04 26.58 358.6 27.02C358.173 27.46 357.653 28.0533 357.04 28.8C359.293 31.76 361.053 34.4933 362.32 37H360.06C358.593 34.3733 357.173 32.1733 355.8 30.4C354.2 32.56 352.8 34.76 351.6 37H349.4Z" fill="white"/>
<path d="M388.8 37V24H390.8V37H388.8ZM387.7 22.1C387.927 21.6733 388.08 21.34 388.16 21.1C388.253 20.8467 388.3 20.6067 388.3 20.38C388.3 20.26 388.267 20.1667 388.2 20.1C388.133 20.02 388.06 19.98 387.98 19.98C387.86 19.98 387.76 20.0533 387.68 20.2C387.613 20.3333 387.593 20.5333 387.62 20.8L386.34 20.44C386.313 20.28 386.3 20.16 386.3 20.08C386.3 19.5867 386.48 19.1867 386.84 18.88C387.187 18.56 387.633 18.4 388.18 18.4C388.687 18.4 389.1 18.56 389.42 18.88C389.753 19.1867 389.92 19.5867 389.92 20.08C389.92 20.7867 389.667 21.6333 389.16 22.62L387.7 22.1ZM391.68 18.2L393.42 18.82L391.6 22.6L390.12 22.06L391.68 18.2Z" fill="white"/>
<rect x="1" y="125" width="28" height="55" rx="4" stroke="white" stroke-width="2"/>
<rect x="35" y="125" width="28" height="55" rx="4" stroke="white" stroke-width="2"/>
<rect x="69" y="125" width="28" height="55" rx="4" stroke="white" stroke-width="2"/>
<rect x="103" y="125" width="28" height="55" rx="4" stroke="white" stroke-width="2"/>
<rect x="137" y="125" width="28" height="55" rx="4" stroke="white" stroke-width="2"/>
<rect x="171" y="125" width="28" height="55" rx="4" stroke="white" stroke-width="2"/>
<rect x="205" y="125" width="28" height="55" rx="4" stroke="white" stroke-width="2"/>
<rect x="240" y="125" width="28" height="55" rx="4" stroke="white" stroke-width="2"/>
<rect x="274" y="125" width="28" height="55" rx="4" stroke="white" stroke-width="2"/>
<rect x="308" y="125" width="28" height="55" rx="4" stroke="white" stroke-width="2"/>
<path d="M8.6 159C9.72 156.493 10.9467 154.273 12.28 152.34C11.3467 151.7 10.6 151.007 10.04 150.26C9.49333 149.5 9.22 148.733 9.22 147.96C9.22 147.307 9.47333 146.78 9.98 146.38C10.5 145.967 11.1333 145.76 11.88 145.76C13.8533 145.76 15.8933 146.433 18 147.78V146H20V159H18V154.64C16.7067 154.453 15.36 154.013 13.96 153.32C12.8667 154.907 11.8333 156.8 10.86 159H8.6ZM11.36 148.26C11.36 148.58 11.6133 149.04 12.12 149.64C12.6267 150.227 13.38 150.813 14.38 151.4C15.38 151.987 16.5867 152.427 18 152.72V150.1C17.0267 149.34 15.9933 148.727 14.9 148.26C13.82 147.793 12.8667 147.56 12.04 147.56C11.8 147.56 11.6267 147.627 11.52 147.76C11.4133 147.88 11.36 148.047 11.36 148.26Z" fill="white"/>
<path d="M53.18 159H51.18V150.02C50.5 151.193 49.7667 152.147 48.98 152.88C48.2067 153.613 47.4 153.98 46.56 153.98C45.5867 153.98 44.76 153.187 44.08 151.6C43.4133 150.013 42.92 148.147 42.6 146H44.64C44.9467 147.733 45.3133 149.14 45.74 150.22C46.1667 151.3 46.6133 151.84 47.08 151.84C47.6933 151.84 48.4067 151.247 49.22 150.06C50.0333 148.873 50.76 147.52 51.4 146H53.18V159Z" fill="white"/>
<path d="M83.74 159.26C82.4733 159.26 81.3267 158.973 80.3 158.4C79.2733 157.813 78.4667 157.007 77.88 155.98C77.2933 154.953 77 153.793 77 152.5C77 151.273 77.2533 150.14 77.76 149.1C78.2667 148.06 78.98 147.233 79.9 146.62C80.82 146.007 81.8667 145.7 83.04 145.7C83.6133 145.713 84.1067 145.787 84.52 145.92C84.9467 146.053 85.3867 146.233 85.84 146.46C86.08 146.593 86.28 146.693 86.44 146.76C86.6133 146.813 86.7733 146.84 86.92 146.84C87.1067 146.84 87.2333 146.793 87.3 146.7C87.3667 146.607 87.4 146.413 87.4 146.12V145.68L89.32 146.16C89.3467 146.973 89.1533 147.607 88.74 148.06C88.3267 148.5 87.7067 148.72 86.88 148.72C86.5867 148.72 86.3 148.673 86.02 148.58C85.74 148.487 85.3733 148.347 84.92 148.16C84.4933 147.973 84.12 147.833 83.8 147.74C83.4933 147.647 83.1867 147.6 82.88 147.6C82.1333 147.6 81.4733 147.807 80.9 148.22C80.3267 148.62 79.88 149.193 79.56 149.94C79.2533 150.673 79.1 151.527 79.1 152.5C79.1 153.433 79.3 154.273 79.7 155.02C80.1 155.753 80.6533 156.333 81.36 156.76C82.0667 157.173 82.86 157.38 83.74 157.38C84.82 157.38 85.72 157.073 86.44 156.46C87.1733 155.847 87.6267 155.033 87.8 154.02L89.68 154.6C89.5333 155.507 89.1867 156.313 88.64 157.02C88.0933 157.713 87.3933 158.26 86.54 158.66C85.7 159.06 84.7667 159.26 83.74 159.26Z" fill="white"/>
<path d="M110.7 146H113.82C114.727 151.32 115.42 155.093 115.9 157.32C116.393 159.533 116.753 160.64 116.98 160.64C117.207 160.64 117.56 159.533 118.04 157.32C118.533 155.093 119.233 151.32 120.14 146H123.26L124.66 159H122.62L121.54 148.18C121.5 148.46 121.453 148.76 121.4 149.08C121.347 149.387 121.293 149.713 121.24 150.06C120.627 153.767 120.147 156.44 119.8 158.08C119.467 159.707 119.08 160.933 118.64 161.76C118.213 162.587 117.647 163 116.94 163C116.233 163 115.66 162.587 115.22 161.76C114.793 160.933 114.407 159.707 114.06 158.08C113.727 156.44 113.253 153.767 112.64 150.06C112.587 149.713 112.533 149.387 112.48 149.08C112.427 148.76 112.38 148.46 112.34 148.18L111.26 159H109.3L110.7 146Z" fill="white"/>
<path d="M145.8 159V146H147.8V150.82L154.8 147.96V146H156.8V159H154.8V149.98L147.8 152.84V159H145.8Z" fill="white"/>
<path d="M184.72 159V147.84H181.68V149.68H179.7V146H191.68V149.68H189.7V147.84H186.72V159H184.72Z" fill="white"/>
<path d="M214.8 146H216.78V153.56C217.54 152.44 218.34 151.52 219.18 150.8C220.033 150.08 220.84 149.72 221.6 149.72C222.413 149.72 223.12 150.26 223.72 151.34C224.32 152.407 224.78 153.667 225.1 155.12C225.433 156.573 225.627 157.867 225.68 159H214.8V146ZM223.32 157.16C223.147 155.973 222.933 154.987 222.68 154.2C222.44 153.4 222.193 152.813 221.94 152.44C221.687 152.067 221.447 151.88 221.22 151.88C220.833 151.88 220.333 152.193 219.72 152.82C219.12 153.433 218.54 154.167 217.98 155.02C217.42 155.86 217.027 156.573 216.8 157.16H223.32Z" fill="white"/>
<path d="M248.8 146H259.02V147.84H250.74V153.84C251.5 152.813 252.3 151.973 253.14 151.32C253.98 150.653 254.8 150.32 255.6 150.32C256.413 150.32 257.113 150.82 257.7 151.82C258.3 152.82 258.767 154 259.1 155.36C259.433 156.72 259.627 157.933 259.68 159H248.8V146ZM257.32 157.16C257.147 156.107 256.933 155.227 256.68 154.52C256.44 153.813 256.193 153.3 255.94 152.98C255.687 152.647 255.447 152.48 255.22 152.48C254.74 152.48 254.2 152.753 253.6 153.3C253.013 153.833 252.46 154.473 251.94 155.22C251.42 155.953 251.04 156.6 250.8 157.16H257.32Z" fill="white"/>
<path d="M278.8 159V146H280.8V150.06H283.84C284.293 148.74 285.073 147.687 286.18 146.9C287.287 146.1 288.56 145.7 290 145.7C291.267 145.7 292.4 145.993 293.4 146.58C294.4 147.167 295.18 147.98 295.74 149.02C296.313 150.047 296.6 151.207 296.6 152.5C296.6 153.78 296.313 154.94 295.74 155.98C295.167 157.007 294.373 157.82 293.36 158.42C292.36 159.007 291.24 159.3 290 159.3C288.747 159.3 287.62 159.007 286.62 158.42C285.62 157.833 284.84 157.027 284.28 156C283.72 154.973 283.44 153.813 283.44 152.52C283.44 152.267 283.447 152.073 283.46 151.94H280.8V159H278.8ZM285.48 152.5C285.48 153.46 285.673 154.313 286.06 155.06C286.447 155.807 286.98 156.393 287.66 156.82C288.353 157.233 289.133 157.44 290 157.44C290.867 157.44 291.64 157.233 292.32 156.82C293.013 156.393 293.553 155.807 293.94 155.06C294.327 154.313 294.52 153.46 294.52 152.5C294.52 151.54 294.327 150.687 293.94 149.94C293.553 149.193 293.013 148.613 292.32 148.2C291.64 147.773 290.867 147.56 290 147.56C289.133 147.56 288.353 147.773 287.66 148.2C286.98 148.613 286.447 149.193 286.06 149.94C285.673 150.687 285.48 151.54 285.48 152.5Z" fill="white"/>
<path d="M318.8 159V146H325.16L324.66 143H326.6L327.4 147.88H320.8V159H318.8Z" fill="white"/>
<path d="M393 152H355M355 152L366.032 143M355 152L366.032 161" stroke="white" stroke-width="2" stroke-linecap="round"/>
</svg>
